<svg width="20" height="16" viewBox="0 0 20 16" fill="none" xmlns="http://www.w3.org/2000/svg">
<path d="M1.28331 7.45878C1.28331 4.70817 1.28331 3.33287 2.08761 2.40719C2.23485 2.23773 2.39936 2.08235 2.57878 1.94327C3.55882 1.18359 5.0149 1.18359 7.92707 1.18359C10.8392 1.18359 12.2953 1.18359 13.2754 1.94327C13.4548 2.08235 13.6193 2.23773 13.7665 2.40719C14.5708 3.33287 14.5708 4.70817 14.5708 7.45878V8.29547C14.5708 11.0461 14.5708 12.4214 13.7665 13.3471C13.6193 13.5165 13.4548 13.6719 13.2754 13.811C12.2953 14.5707 10.8392 14.5707 7.92707 14.5707C5.0149 14.5707 3.55882 14.5707 2.57878 13.811C2.39936 13.6719 2.23485 13.5165 2.08761 13.3471C1.28331 12.4214 1.28331 11.0461 1.28331 8.29547V7.45878Z" stroke="#767E8C" stroke-width="1.2"/>
<path d="M14.5708 5.78356L15.154 5.50814C16.8777 4.69408 17.7396 4.28706 18.3698 4.65492C19 5.02279 19 5.93293 19 7.75321V7.99736C19 9.81764 19 10.7278 18.3698 11.0956C17.7396 11.4635 16.8777 11.0565 15.154 10.2424L14.5708 9.96701V5.78356Z" stroke="#767E8C" stroke-width="1.2"/>
</svg>
