<svg width="109" height="30" viewBox="0 0 109 30" fill="none" xmlns="http://www.w3.org/2000/svg">
<path fill-rule="evenodd" clip-rule="evenodd" d="M108.204 0V30H91.7175V0H108.204ZM35.7988 9.70968C36.5838 9.70968 37.3633 9.76344 38.1371 9.87097C38.911 9.97849 39.6119 10.1989 40.24 10.5323C40.868 10.8656 41.3727 11.3333 41.754 11.9355C42.1353 12.5376 42.326 13.3226 42.326 14.2903V22.871C42.326 23.5161 42.3652 23.9892 42.4437 24.2903C42.5223 24.5914 42.7858 24.7419 43.2344 24.7419C43.4811 24.7419 43.7727 24.6882 44.1092 24.5806V26.7097C43.6157 26.9893 42.9316 27.129 42.0568 27.129C41.3166 27.129 40.7278 26.9301 40.2904 26.5323C39.853 26.1344 39.6343 25.4839 39.6343 24.5806C38.8493 25.4839 37.9353 26.1344 36.8922 26.5323C35.8492 26.9301 34.7221 27.129 33.5109 27.129C32.7258 27.129 31.98 27.043 31.2734 26.871C30.5669 26.6989 29.9557 26.4301 29.4398 26.0645C28.9239 25.6989 28.5145 25.2204 28.2117 24.629C27.9089 24.0376 27.7575 23.3226 27.7575 22.4839C27.7575 21.5376 27.9257 20.7634 28.2622 20.1613C28.5986 19.5591 29.0416 19.0699 29.5912 18.6935C30.1407 18.3172 30.7688 18.0323 31.4753 17.8387C32.1819 17.6452 32.9052 17.4839 33.6455 17.3548C34.4305 17.2043 35.1763 17.0914 35.8829 17.0161C36.5894 16.9409 37.2119 16.8333 37.7502 16.6935C38.2885 16.5538 38.7147 16.3495 39.0287 16.0806C39.3428 15.8118 39.4998 15.4194 39.4998 14.9032C39.4998 14.3011 39.382 13.8172 39.1465 13.4516C38.911 13.086 38.6082 12.8065 38.2381 12.6129C37.868 12.4194 37.453 12.2903 36.9932 12.2258C36.5334 12.1613 36.0791 12.129 35.6305 12.129C34.4193 12.129 33.4099 12.3495 32.6024 12.7903C31.795 13.2312 31.3576 14.0645 31.2903 15.2903H28.4304C28.4753 14.2581 28.6996 13.3871 29.1033 12.6774C29.5071 11.9677 30.0454 11.3925 30.7183 10.9516C31.3912 10.5108 32.1594 10.1936 33.023 10C33.8866 9.80645 34.8118 9.70968 35.7988 9.70968ZM71.4629 9.70968C73.0106 9.70968 74.2948 10.0161 75.3153 10.629C76.3359 11.2419 77.1546 12.0215 77.7715 12.9677C78.3883 13.914 78.8145 14.9462 79.05 16.0645C79.2855 17.1828 79.3808 18.2473 79.336 19.2581H66.3152C66.2928 19.9893 66.3825 20.6828 66.5844 21.3387C66.7862 21.9946 67.1115 22.5753 67.5601 23.0806C68.0087 23.586 68.5807 23.9892 69.276 24.2903C69.9713 24.5914 70.79 24.7419 71.7321 24.7419C72.9434 24.7419 73.9359 24.4731 74.7097 23.9355C75.4836 23.3978 75.9939 22.5807 76.2406 21.4839H79.0668C78.6855 23.3548 77.8444 24.7634 76.5434 25.7097C75.2424 26.6559 73.605 27.129 71.6312 27.129C70.2405 27.129 69.0349 26.914 68.0143 26.4839C66.9937 26.0538 66.1357 25.4516 65.4404 24.6774C64.7451 23.9032 64.2236 22.9785 63.8759 21.9032C63.5282 20.828 63.332 19.6559 63.2871 18.3871C63.2871 17.1183 63.489 15.957 63.8927 14.9032C64.2965 13.8495 64.8628 12.9355 65.5918 12.1613C66.3208 11.3871 67.1844 10.7849 68.1825 10.3548C69.1807 9.92473 70.2741 9.70968 71.4629 9.70968ZM99.2541 9.70968C98.4915 9.70968 97.7232 9.80107 96.9494 9.98387C96.1755 10.1667 95.4802 10.4462 94.8634 10.8226C94.2465 11.1989 93.7418 11.6882 93.3493 12.2903C92.9568 12.8925 92.7605 13.6129 92.7605 14.4516C92.7605 15.5269 93.0409 16.3656 93.6016 16.9677C94.1624 17.5699 94.8634 18.0376 95.7045 18.371C96.5456 18.7043 97.4597 18.9624 98.4466 19.1452C99.4335 19.328 100.348 19.5323 101.189 19.7581C102.03 19.9839 102.731 20.2796 103.292 20.6452C103.852 21.0108 104.133 21.5484 104.133 22.2581C104.133 22.7742 103.998 23.1989 103.729 23.5323C103.46 23.8656 103.118 24.1183 102.703 24.2903C102.288 24.4624 101.834 24.5806 101.34 24.6452C100.847 24.7097 100.376 24.7419 99.927 24.7419C99.3438 24.7419 98.7774 24.6882 98.2279 24.5806C97.6784 24.4731 97.1849 24.2957 96.7475 24.0484C96.3101 23.8011 95.9568 23.4677 95.6877 23.0484C95.4185 22.629 95.2727 22.1183 95.2503 21.5161H92.3904C92.4353 22.5484 92.6596 23.4247 93.0633 24.1452C93.4671 24.8656 94.0054 25.4462 94.6783 25.8871C95.3512 26.328 96.1251 26.6452 96.9998 26.8387C97.8746 27.0323 98.7943 27.129 99.7588 27.129C100.634 27.129 101.514 27.0484 102.4 26.8871C103.286 26.7258 104.082 26.4409 104.789 26.0323C105.495 25.6237 106.067 25.086 106.505 24.4194C106.942 23.7527 107.161 22.914 107.161 21.9032C107.161 21.1075 106.998 20.4409 106.673 19.9032C106.348 19.3656 105.922 18.9194 105.394 18.5645C104.867 18.2097 104.262 17.9247 103.578 17.7097C102.893 17.4946 102.192 17.3118 101.475 17.1613C100.802 17.0108 100.129 16.8656 99.456 16.7258C98.783 16.586 98.1774 16.414 97.6391 16.2097C97.1008 16.0054 96.6578 15.7473 96.3101 15.4355C95.9624 15.1237 95.7886 14.7312 95.7886 14.2581C95.7886 13.828 95.9008 13.4785 96.1251 13.2097C96.3494 12.9409 96.641 12.7258 96.9998 12.5645C97.3587 12.4032 97.7569 12.2903 98.1943 12.2258C98.6317 12.1613 99.0634 12.129 99.4896 12.129C99.9606 12.129 100.426 12.1774 100.886 12.2742C101.346 12.371 101.766 12.5269 102.148 12.7419C102.529 12.957 102.843 13.2419 103.09 13.5968C103.336 13.9516 103.482 14.3978 103.527 14.9355H106.387C106.32 13.9247 106.095 13.0806 105.714 12.4032C105.333 11.7258 104.822 11.1882 104.183 10.7903C103.544 10.3925 102.809 10.1129 101.979 9.95161C101.149 9.79032 100.241 9.70968 99.2541 9.70968ZM18.6059 9.70968C19.4807 9.70968 20.2714 9.80107 20.9779 9.98387C21.6845 10.1667 22.2901 10.4516 22.7948 10.8387C23.2995 11.2258 23.692 11.7258 23.9724 12.3387C24.2528 12.9516 24.393 13.6882 24.393 14.5484V26.7742H21.5331V15.8387C21.5331 15.3226 21.4882 14.8387 21.3985 14.3871C21.3088 13.9355 21.1406 13.543 20.8938 13.2097C20.6471 12.8763 20.305 12.6129 19.8676 12.4194C19.4302 12.2258 18.8639 12.129 18.1685 12.129C16.7554 12.129 15.6451 12.5161 14.8376 13.2903C14.0302 14.0645 13.6264 15.0968 13.6264 16.3871V26.7742H10.7665V15.8387C10.7665 15.3011 10.7161 14.8065 10.6151 14.3548C10.5142 13.9032 10.3404 13.5108 10.0936 13.1774C9.8469 12.8441 9.51606 12.586 9.1011 12.4032C8.68613 12.2204 8.15342 12.129 7.50294 12.129C6.67301 12.129 5.96086 12.2903 5.36645 12.6129C4.77204 12.9355 4.2898 13.3226 3.9197 13.7742C3.54959 14.2258 3.28043 14.6935 3.1122 15.1774C2.94398 15.6613 2.85986 16.0645 2.85986 16.3871V26.7742H0V10.0968H2.69164V12.5484H2.75893C4.05989 10.6559 5.9328 9.70968 8.37772 9.70968C9.45438 9.70968 10.4301 9.92473 11.3049 10.3548C12.1797 10.7849 12.7965 11.5161 13.1554 12.5484C13.7386 11.6452 14.5068 10.9462 15.4601 10.4516C16.4134 9.95699 17.462 9.70968 18.6059 9.70968ZM49.7953 3.74194V17.3871L57.7356 10.0968H61.5712L54.6739 16.1613L62.0759 26.7742H58.4422L52.4869 18.0645L49.7953 20.4516V26.7742H46.9354V3.74194H49.7953ZM91.3474 9.70968V12.6129C90.2035 12.6129 89.2278 12.7634 88.4203 13.0645C87.6128 13.3656 86.9623 13.8064 86.4688 14.3871C85.9753 14.9677 85.6165 15.672 85.3922 16.5C85.1679 17.328 85.0557 18.2796 85.0557 19.3548V26.7742H82.1958V10.0968H84.8875V13.6129H84.9548C85.6501 12.2581 86.5025 11.2581 87.5118 10.6129C88.5212 9.96774 89.7997 9.66667 91.3474 9.70968ZM39.4661 18.1613C39.1072 18.4194 38.6362 18.6075 38.053 18.7258C37.4698 18.8441 36.8586 18.9409 36.2193 19.0161C35.5801 19.0914 34.9352 19.1774 34.2847 19.2742C33.6342 19.371 33.0511 19.5269 32.5352 19.7419C32.0193 19.957 31.5987 20.2634 31.2734 20.6613C30.9482 21.0591 30.7856 21.6021 30.7856 22.2903C30.7856 22.7419 30.8809 23.1237 31.0716 23.4355C31.2622 23.7473 31.509 24 31.8118 24.1935C32.1146 24.3871 32.4679 24.5269 32.8716 24.6129C33.2754 24.6989 33.7015 24.7419 34.1501 24.7419C35.0922 24.7419 35.8997 24.6183 36.5726 24.371C37.2455 24.1237 37.7951 23.8118 38.2212 23.4355C38.6474 23.0591 38.9614 22.6505 39.1633 22.2097C39.3652 21.7688 39.4661 21.3548 39.4661 20.9677V18.1613ZM71.2947 12.129C70.5545 12.129 69.8872 12.2527 69.2928 12.5C68.6984 12.7473 68.1881 13.086 67.7619 13.5161C67.3358 13.9462 66.9993 14.4462 66.7526 15.0161C66.5058 15.586 66.3601 16.1935 66.3152 16.8387H76.3079C76.263 16.1935 76.1116 15.5806 75.8537 15C75.5957 14.4194 75.2481 13.9194 74.8107 13.5C74.3733 13.0806 73.8574 12.7473 73.263 12.5C72.6686 12.2527 72.0125 12.129 71.2947 12.129Z" fill="white"/>
</svg>
