<svg width="18" height="16" viewBox="0 0 18 16" fill="none" xmlns="http://www.w3.org/2000/svg">
<path d="M1.2833 7.81508C1.2833 5.04114 1.2833 3.65417 2.19567 2.79242C3.10804 1.93066 4.57648 1.93066 7.51335 1.93066H10.6284C13.5652 1.93066 15.0337 1.93066 15.946 2.79242C16.8584 3.65417 16.8584 5.04114 16.8584 7.81508V9.28619C16.8584 12.0601 16.8584 13.4471 15.946 14.3089C15.0337 15.1706 13.5652 15.1706 10.6284 15.1706H7.51335C4.57648 15.1706 3.10804 15.1706 2.19567 14.3089C1.2833 13.4471 1.2833 12.0601 1.2833 9.28619V7.81508Z" stroke="#767E8C" stroke-width="1.2"/>
<path d="M5.17707 1.93048V0.827148" stroke="#767E8C" stroke-width="1.2" stroke-linecap="round"/>
<path d="M12.9646 1.93048V0.827148" stroke="#767E8C" stroke-width="1.2" stroke-linecap="round"/>
<path d="M1.67267 5.60742H16.469" stroke="#767E8C" stroke-width="1.2" stroke-linecap="round"/>
<path d="M13.7434 11.4922C13.7434 11.8985 13.3947 12.2278 12.9646 12.2278C12.5345 12.2278 12.1859 11.8985 12.1859 11.4922C12.1859 11.086 12.5345 10.7567 12.9646 10.7567C13.3947 10.7567 13.7434 11.086 13.7434 11.4922Z" fill="#767E8C"/>
<path d="M13.7434 8.55001C13.7434 8.95624 13.3947 9.28556 12.9646 9.28556C12.5345 9.28556 12.1859 8.95624 12.1859 8.55001C12.1859 8.14377 12.5345 7.81445 12.9646 7.81445C13.3947 7.81445 13.7434 8.14377 13.7434 8.55001Z" fill="#767E8C"/>
<path d="M9.8496 11.4922C9.8496 11.8985 9.50093 12.2278 9.07084 12.2278C8.64074 12.2278 8.29208 11.8985 8.29208 11.4922C8.29208 11.086 8.64074 10.7567 9.07084 10.7567C9.50093 10.7567 9.8496 11.086 9.8496 11.4922Z" fill="#767E8C"/>
<path d="M9.8496 8.55001C9.8496 8.95624 9.50093 9.28556 9.07084 9.28556C8.64074 9.28556 8.29208 8.95624 8.29208 8.55001C8.29208 8.14377 8.64074 7.81445 9.07084 7.81445C9.50093 7.81445 9.8496 8.14377 9.8496 8.55001Z" fill="#767E8C"/>
<path d="M5.95582 11.4922C5.95582 11.8985 5.60716 12.2278 5.17706 12.2278C4.74697 12.2278 4.39831 11.8985 4.39831 11.4922C4.39831 11.086 4.74697 10.7567 5.17706 10.7567C5.60716 10.7567 5.95582 11.086 5.95582 11.4922Z" fill="#767E8C"/>
<path d="M5.95582 8.55001C5.95582 8.95624 5.60716 9.28556 5.17706 9.28556C4.74697 9.28556 4.39831 8.95624 4.39831 8.55001C4.39831 8.14377 4.74697 7.81445 5.17706 7.81445C5.60716 7.81445 5.95582 8.14377 5.95582 8.55001Z" fill="#767E8C"/>
</svg>
