<svg width="37" height="32" viewBox="0 0 37 32" fill="none" xmlns="http://www.w3.org/2000/svg">
<path d="M13.5958 27.7112L14.3736 26.7521L13.5958 27.7112ZM18.5692 5.13204L17.6676 5.97577C17.9011 6.22529 18.2275 6.3669 18.5692 6.3669C18.911 6.3669 19.2374 6.22529 19.4709 5.97577L18.5692 5.13204ZM23.5427 27.7112L24.3204 28.6704L23.5427 27.7112ZM14.3736 26.7521C11.893 24.7407 9.17954 22.7757 7.02649 20.282C4.91547 17.8369 3.43488 14.9747 3.43488 11.2549H0.965145C0.965145 15.7229 2.7743 19.1361 5.15711 21.896C7.49789 24.6071 10.4823 26.7764 12.8181 28.6704L14.3736 26.7521ZM3.43488 11.2549C3.43488 7.60377 5.44064 4.56147 8.14784 3.28862C10.7671 2.05713 14.2968 2.37357 17.6676 5.97577L19.4709 4.2883C15.4758 0.0187968 10.8209 -0.697285 7.097 1.0536C3.46105 2.76312 0.965145 6.71808 0.965145 11.2549H3.43488ZM12.8181 28.6704C13.6563 29.3501 14.5569 30.0755 15.4699 30.6242C16.3816 31.1722 17.4284 31.6217 18.5692 31.6217V29.152C18.0732 29.152 17.483 28.9527 16.7422 28.5074C16.0026 28.0629 15.2349 27.4505 14.3736 26.7521L12.8181 28.6704ZM24.3204 28.6704C26.6562 26.7764 29.6406 24.6071 31.9814 21.896C34.3642 19.1361 36.1733 15.7229 36.1733 11.2549H33.7036C33.7036 14.9747 32.223 17.8369 30.112 20.282C27.9589 22.7757 25.2455 24.7407 22.7649 26.7521L24.3204 28.6704ZM36.1733 11.2549C36.1733 6.71808 33.6774 2.76312 30.0415 1.0536C26.3176 -0.697285 21.6627 0.0187968 17.6676 4.2883L19.4709 5.97577C22.8416 2.37357 26.3714 2.05713 28.9906 3.28862C31.6978 4.56147 33.7036 7.60377 33.7036 11.2549H36.1733ZM22.7649 26.7521C21.9036 27.4505 21.1359 28.0629 20.3963 28.5074C19.6555 28.9527 19.0653 29.152 18.5692 29.152V31.6217C19.7101 31.6217 20.7569 31.1722 21.6686 30.6242C22.5816 30.0755 23.4822 29.3501 24.3204 28.6704L22.7649 26.7521Z" fill="#767E8C"/>
</svg>
