<svg width="14" height="15" viewBox="0 0 16 17" fill="none" xmlns="http://www.w3.org/2000/svg">
<path d="M5.55155 3.55628C6.43788 1.85209 6.88105 1 7.54361 1C8.20618 1 8.64935 1.85209 9.53568 3.55628L9.76499 3.99717C10.0169 4.48145 10.1428 4.72359 10.3391 4.88336C10.5355 5.04312 10.78 5.10243 11.2691 5.22104L11.7144 5.32902C13.4356 5.74642 14.2962 5.95511 14.5009 6.6608C14.7056 7.36648 14.119 8.1018 12.9456 9.57244L12.642 9.95292C12.3086 10.3708 12.1419 10.5798 12.0669 10.8383C11.9919 11.0968 12.0171 11.3756 12.0675 11.9332L12.1134 12.4408C12.2908 14.4029 12.3795 15.384 11.8435 15.8202C11.3074 16.2563 10.5017 15.8587 8.89016 15.0634L8.47324 14.8576C8.0153 14.6316 7.78632 14.5186 7.54361 14.5186C7.3009 14.5186 7.07193 14.6316 6.61399 14.8576L6.19707 15.0634C4.58556 15.8587 3.7798 16.2563 3.24377 15.8202C2.70775 15.384 2.79644 14.4029 2.97384 12.4408L3.01974 11.9332C3.07015 11.3756 3.09535 11.0968 3.02035 10.8383C2.94535 10.5798 2.77863 10.3708 2.4452 9.95292L2.14163 9.57244C0.968264 8.1018 0.381579 7.36648 0.586323 6.6608C0.791066 5.95511 1.65164 5.74642 3.3728 5.32902L3.81808 5.22104C4.30718 5.10243 4.55173 5.04312 4.74808 4.88336C4.94444 4.72359 5.07038 4.48145 5.32224 3.99718L5.55155 3.55628Z" stroke="#767E8C"/>
</svg>
