<svg width="20" height="16" viewBox="0 0 20 16" fill="none" xmlns="http://www.w3.org/2000/svg">
<path d="M5.71246 10.627L5.71246 5.60681" stroke="#767E8C" stroke-width="1.2" stroke-linecap="round" stroke-linejoin="round"/>
<path d="M17.9665 5.60742H15.6611C14.0805 5.60742 12.7991 6.73122 12.7991 8.1175C12.7991 9.50377 14.0805 10.6276 15.6611 10.6276H17.9665C18.0403 10.6276 18.0772 10.6276 18.1084 10.6258C18.5861 10.5983 18.9666 10.2646 18.9979 9.8456C19 9.81827 19 9.7859 19 9.72115V6.51384C19 6.44909 19 6.41672 18.9979 6.38939C18.9666 5.97041 18.5861 5.63667 18.1084 5.60921C18.0772 5.60742 18.0403 5.60742 17.9665 5.60742Z" stroke="#767E8C" stroke-width="1.2"/>
<ellipse cx="15.4566" cy="8.11892" rx="0.885835" ry="0.836691" fill="#767E8C"/>
<path d="M18.0832 5.60631C18.0143 4.03977 17.7923 3.07929 17.0763 2.4031C16.0385 1.42285 14.3682 1.42285 11.0275 1.42285L8.36999 1.42285C5.0293 1.42285 3.35895 1.42285 2.32113 2.4031C1.28331 3.38334 1.28331 4.96102 1.28331 8.11638C1.28331 11.2717 1.28331 12.8494 2.32113 13.8297C3.35895 14.8099 5.0293 14.8099 8.36999 14.8099H11.0275C14.3682 14.8099 16.0385 14.8099 17.0764 13.8297C17.7923 13.1535 18.0143 12.193 18.0832 10.6265" stroke="#767E8C" stroke-width="1.2"/>
</svg>
